
        <svg xmlns="http://www.w3.org/2000/svg" xmlns:xlink="http://www.w3.org/1999/xlink" version="1.1" width="3162.316844440063" 
        height="884.4254291548899" viewBox="0 0 3162.316844440063 884.4254291548899">
			
			<g transform="scale(8.115842222003147) translate(10, 10)">
				<defs id="SvgjsDefs2174"></defs><g id="SvgjsG2175" featureKey="symbolFeature-0" transform="matrix(1.3402746338957867,0,0,1.3402746338957867,-12.196499679725857,-27.877711362483968)" fill="#1a1a1a"><g xmlns="http://www.w3.org/2000/svg"><rect x="22.6" y="32.1" width="13" height="4.7"></rect><rect x="22.6" y="83.1" width="13" height="3.1"></rect><rect x="9.1" y="27.4" width="11" height="53.8"></rect><rect x="9.1" y="20.8" width="11" height="5.6"></rect><rect x="9.1" y="82.5" width="11" height="3.8"></rect><rect x="63.2" y="23" transform="matrix(0.9526 -0.3043 0.3043 0.9526 -4.6112 22.1104)" width="11" height="5.6"></rect><rect x="72.5" y="28.1" transform="matrix(0.9526 -0.3043 0.3043 0.9526 -13.0573 26.3359)" width="11" height="53.8"></rect><rect x="81.6" y="81.8" transform="matrix(0.9526 -0.3043 0.3043 0.9526 -21.3308 30.4741)" width="11" height="3.8"></rect><rect x="38" y="35.7" width="11" height="44.5"></rect><rect x="38" y="21.6" width="11" height="5.6"></rect><rect x="38" y="28.6" width="11" height="5.6"></rect><rect x="38" y="81.2" width="11" height="5.8"></rect><rect x="51.5" y="42.1" width="14.9" height="4.3"></rect><rect x="51.5" y="82.6" width="14.9" height="4.5"></rect><path d="M22.6,82.1h13V37.5h-13V82.1z M30.5,42.1h0.9v35.7h-0.9V42.1z M26.7,42.1h0.9v35.7h-0.9V42.1z"></path><path d="M51.5,81.8h14.9V47.5H51.5V81.8z M58.9,70.3c1.6,0,3,1.7,3,3.7c0,2.1-1.3,3.7-3,3.7c-1.6,0-3-1.7-3-3.7   C56,72,57.3,70.3,58.9,70.3z"></path></g></g><g id="SvgjsG2176" featureKey="nameFeature-0" transform="matrix(1.1152129119994676,0,0,1.1152129119994676,129.4573145925477,13.91493959205404)" fill="#22313f"><path d="M2.28 40 l0 -24.48 l11.6 0 c4.56 0 8.44 3.44 8.44 8.04 c0 4.64 -4 8.04 -8.44 8.04 l-5.6 0 l0 8.4 l-6 0 z M13.88 21.08 l-5.6 0 l0 4.96 l5.6 0 c1.4 0 2.44 -1.08 2.44 -2.48 s-1.04 -2.48 -2.44 -2.48 z M39.611999999999995 35.04 l-9 0 l-1.76 4.96 l-6.52 0 l9.8 -24.48 l6 0 l9.8 24.48 l-6.56 0 z M32.571999999999996 29.48 l5.08 0 l-2.52 -7.12 z M51.263999999999996 40 l0 -24.48 l11.6 0 c4.56 0 8.44 3.44 8.44 8.04 c0 4.64 -4 8.04 -8.44 8.04 l-5.6 0 l0 8.4 l-6 0 z M62.864 21.08 l-5.6 0 l0 4.96 l5.6 0 c1.4 0 2.44 -1.08 2.44 -2.48 s-1.04 -2.48 -2.44 -2.48 z M75.196 15.52 l18.2 0 l0 5.56 l-12.2 0 l0 3.92 l9.8 0 l0 5.56 l-9.8 0 l0 3.88 l12.2 0 l0 5.56 l-18.2 0 l0 -24.48 z M103.688 21.16 l0 5.84 l5.6 0 c1.84 0 2.92 -1.08 2.92 -2.92 s-1.08 -2.92 -2.92 -2.92 l-5.6 0 z M112.768 30.96 c1.12 1.52 2.24 3.04 3.4 4.52 c1.12 1.48 2.24 3 3.36 4.52 l-7.32 0 c-1.44 -1.92 -2.84 -3.84 -4.24 -5.76 c-1.4 -1.88 -2.84 -3.8 -4.28 -5.72 l0 11.48 l-6 0 l0 -24.48 l11.6 0 c4.56 0 8.44 3.48 8.44 8.08 c0 3.24 -2 6.08 -4.96 7.36 z M122.94 40 l0 -24.48 l11.6 0 c4.56 0 8.44 3.44 8.44 8.04 c0 4.64 -4 8.04 -8.44 8.04 l-5.6 0 l0 8.4 l-6 0 z M134.54 21.08 l-5.6 0 l0 4.96 l5.6 0 c1.4 0 2.44 -1.08 2.44 -2.48 s-1.04 -2.48 -2.44 -2.48 z M160.272 35.04 l-9 0 l-1.76 4.96 l-6.52 0 l9.8 -24.48 l6 0 l9.8 24.48 l-6.56 0 z M153.232 29.48 l5.08 0 l-2.52 -7.12 z M192.48399999999998 25 l0 13.6 c-2.84 1.08 -6.4 1.68 -9.44 1.68 c-7.8 0 -13.04 -4.68 -13.04 -12.4 c0 -8.44 6.28 -12.56 13.96 -12.56 c0.52 0 1.08 0 1.72 0.04 c0.6 0.04 1.24 0.12 1.92 0.16 c1.24 0.16 2.48 0.32 3.68 0.68 l0 6.12 c-0.44 -0.2 -0.92 -0.36 -1.48 -0.52 c-0.6 -0.12 -1.2 -0.24 -1.84 -0.36 c-1.28 -0.24 -2.64 -0.32 -3.96 -0.32 c-5.08 0 -8 1.56 -8 6.76 c0 5.08 2.68 6.6 7.24 6.6 c0.48 0 1 -0.04 1.56 -0.08 c0.52 -0.04 1.08 -0.08 1.68 -0.12 l0 -3.72 l-5.2 0 l0 -5.56 l11.2 0 z M197.176 15.52 l18.2 0 l0 5.56 l-12.2 0 l0 3.92 l9.8 0 l0 5.56 l-9.8 0 l0 3.88 l12.2 0 l0 5.56 l-18.2 0 l0 -24.48 z"></path></g>
			</g>
		</svg>
	